<svg xmlns="http://www.w3.org/2000/svg" viewBox="0 0 512 512" width="512" height="512">
  <defs>
    <linearGradient id="bgGrad" x1="0%" y1="0%" x2="100%" y2="100%">
      <stop offset="0%" style="stop-color:#111118"/>
      <stop offset="100%" style="stop-color:#08080D"/>
    </linearGradient>
    <linearGradient id="amberGrad" x1="0%" y1="0%" x2="100%" y2="100%">
      <stop offset="0%" style="stop-color:#F5B83D"/>
      <stop offset="50%" style="stop-color:#E8A230"/>
      <stop offset="100%" style="stop-color:#D4891A"/>
    </linearGradient>
    <linearGradient id="glowGrad" x1="50%" y1="0%" x2="50%" y2="100%">
      <stop offset="0%" style="stop-color:#E8A230;stop-opacity:0.25"/>
      <stop offset="100%" style="stop-color:#E8A230;stop-opacity:0"/>
    </linearGradient>
    <filter id="glow">
      <feGaussianBlur stdDeviation="6" result="blur"/>
      <feMerge>
        <feMergeNode in="blur"/>
        <feMergeNode in="SourceGraphic"/>
      </feMerge>
    </filter>
  </defs>
  <rect width="512" height="512" rx="108" fill="url(#bgGrad)"/>
  <rect x="1.5" y="1.5" width="509" height="509" rx="106.5" fill="none" stroke="rgba(232,162,48,0.12)" stroke-width="1.5"/>
  <ellipse cx="256" cy="230" rx="150" ry="130" fill="url(#glowGrad)" opacity="0.5"/>
  <g filter="url(#glow)" transform="translate(256, 245) scale(1.4)">
    <path d="M-8,-120 L32,-55 L-5,-55 L28,10 L-15,10 L20,75 L-60,0 L-25,0 L-58,-65 L-22,-65 Z" fill="url(#amberGrad)" opacity="0.95"/>
  </g>
  <g opacity="0.5">
    <circle cx="176" cy="420" r="6" fill="#E8A230"/>
    <rect x="196" y="418" width="24" height="2.5" rx="1.25" fill="#E8A230" opacity="0.35"/>
    <circle cx="236" cy="420" r="6" fill="#E8A230"/>
    <rect x="256" y="418" width="24" height="2.5" rx="1.25" fill="#E8A230" opacity="0.35"/>
    <circle cx="296" cy="420" r="6" fill="#E8A230"/>
    <rect x="316" y="418" width="24" height="2.5" rx="1.25" fill="#E8A230" opacity="0.35"/>
    <circle cx="356" cy="420" r="6" fill="#E8A230"/>
  </g>
</svg>
